<?xml version="1.0" encoding="utf-8"?>
<!-- Generator: Adobe Illustrator 27.9.0, SVG Export Plug-In . SVG Version: 6.00 Build 0)  -->
<svg version="1.1" id="Layer_1" xmlns="http://www.w3.org/2000/svg" xmlns:xlink="http://www.w3.org/1999/xlink" x="0px" y="0px"
	 viewBox="0 0 1227.66 209.01" style="enable-background:new 0 0 1227.66 209.01;" xml:space="preserve">
<style type="text/css">
	.st0{fill:#010101;}
	.st1{fill:#231F20;}
</style>
<g>
	<path class="st0" d="M251.86,131.03H174.9c3.52,14.42,15.26,25.33,30.52,25.33c8.61,0,17.02-3.68,22.66-10.02l18.6,0.4
		c-8.19,15.57-23.87,25.55-41.94,25.55c-26.49,0-47.29-22.98-47.29-48.97c0-26.83,20.45-48.79,47.62-48.79
		c26.33,0,47.29,21.63,47.29,47.79C252.37,125.17,252.2,128.18,251.86,131.03L251.86,131.03z M204.91,90.45
		c-15.1,0-29.01,11.91-30.01,27.16h60.03C233.92,102.36,220.01,90.45,204.91,90.45L204.91,90.45z"/>
	<path class="st0" d="M328.97,169.94v-50.48c0-15.76-4.69-29.01-23.14-29.01c-17.1,0-24.48,13.25-24.48,28.84v50.64h-17.44v-92.9
		h16.27v9.89h0.32c6.71-8.88,16.44-12.4,27.17-12.4c13.25,0,25.65,5.19,32.87,16.59c4.52,7.05,5.86,15.6,5.86,23.82v55H328.97
		L328.97,169.94z"/>
	<path class="st0" d="M439.12,169.94v-13.25h-0.34c-7.71,10.73-19.95,15.6-32.86,15.6c-27.84,0-48.31-20.79-48.31-48.46
		c0-27.85,20.13-49.3,48.31-49.3c11.73,0,24.14,4.52,31.52,13.92h0.33v-42.6h17.45v124.09H439.12L439.12,169.94z M406.93,90.45
		c-18.45,0-31.87,15.09-31.87,33.2c0,17.44,13.92,32.71,31.7,32.71c18.11,0,32.36-14.75,32.36-32.71
		C439.12,105.04,425.88,90.45,406.93,90.45L406.93,90.45z"/>
	<polygon class="st0" points="505.67,200.96 487.56,200.96 501.14,168.1 464.1,77.04 482.87,77.04 510.2,149.14 538.2,77.04 
		556.99,77.04 505.67,200.96 	"/>
	<path class="st0" d="M606.62,172.29c-27.34,0-50.14-21.97-50.14-49.47c0-27.33,23.31-48.29,50.14-48.29
		c27.16,0,50.14,21.12,50.14,48.63C656.75,149.65,634.78,172.29,606.62,172.29L606.62,172.29z M606.62,90.45
		c-18.11,0-32.7,14.76-32.7,32.87c0,18.11,14.59,33.04,32.7,33.04c18.28,0,32.7-15.1,32.7-33.2
		C639.32,105.04,624.73,90.45,606.62,90.45L606.62,90.45z"/>
	<polygon class="st0" points="671,169.94 671,45.85 688.44,45.85 688.44,169.94 671,169.94 	"/>
	<path class="st0" d="M26.14,151.61c0.76,2.95,1.72,5.36,2.84,7.18c1.12,1.82,2.57,3.48,4.28,4.93c5.51,4.84,12.51,7.3,20.79,7.3
		c8.2,0,15.87-1.98,22.82-5.87v-16.65c-7.2,4.24-14.13,6.39-20.61,6.39c-8.86,0-13.36-5.39-13.36-16.03V93.42h29.25V77.3H42.91V47.5
		H25.69v29.8H8.9v16.12h16.08v41.2C24.99,142.95,25.38,148.66,26.14,151.61L26.14,151.61z"/>
	<path class="st0" d="M131.66,92.61c5.4,0,11.33,3,17.66,8.93l9.45-15.75c-7.68-7.08-17.02-10.3-22.47-10.3h-1.18
		c-6.23,0-16.66,0-25.19,13.76l-0.36,0.57l0.09-12.53H91.64v92.11h18.02v-48.16c0-7.71,2.2-14.48,6.53-20.12
		C120.51,95.47,125.73,92.61,131.66,92.61L131.66,92.61z"/>
</g>
<g>
	<rect x="800.22" class="st0" width="1.68" height="209.01"/>
</g>
<g>
	<path class="st1" d="M944.38,71.01h-0.88L914,84.38l-0.36,2c5.61-2.3,17.78-7.17,14.72,3.79c0,0-12.04,66.21-12.04,66.21
		c-2.12,10.18-5.64,9.74-16.33,10.73l-0.39,2.14h41.65l0.36-2c-8.77-0.89-14.12,0.43-12.78-8.79
		C928.77,156.85,945.18,72.5,944.38,71.01z"/>
	<path class="st1" d="M1038.83,118.89c3.47-41.25,68.04-62.23,84.09-18.62l1.62-0.74c-10.49-36.58-60.33-39.88-84-11.87
		c-28.42-40.51-93.56-9.9-93.27,36.13c-1.23,47.7,57.27,58.92,85.6,26.42c21.13,31.91,71.06,19.36,86.64-11.53
		c-0.13-0.06-1.36-0.72-1.47-0.72C1097.05,175.9,1033.38,166.82,1038.83,118.89z M1026,118.88c-1.31,10.61,0.66,20.77,5.47,29.06
		c-26.76,27.84-76.1,11.7-70.99-28.94c2.96-35.29,54.21-59.9,78.24-29.25C1031.82,98.06,1027.32,108.24,1026,118.88z"/>
	<path class="st1" d="M1131.95,24.25c1.38-0.87,1.87-2.73,1.1-4.16c-0.77-1.43-2.51-1.88-3.88-1.01c-1.38,0.87-1.87,2.73-1.1,4.16
		C1128.84,24.67,1130.58,25.12,1131.95,24.25z"/>
	<path class="st1" d="M931.56,34.55c0.94-1.61,2.17-2.95,3.68-3.99s3.35-1.57,5.53-1.57c1.74,0,3.23,0.31,4.46,0.94
		c1.23,0.63,2.29,1.68,3.16,3.16h0.43c0.2-0.49,0.47-1.1,0.81-1.83c0.33-0.73,0.73-1.42,1.2-2.09c-0.44-0.23-0.97-0.51-1.61-0.83
		c-0.64-0.32-1.39-0.62-2.26-0.89c-0.87-0.28-1.87-0.51-3-0.7c-1.13-0.19-2.41-0.28-3.83-0.28c-2.64,0-5.06,0.44-7.27,1.33
		c-2.21,0.89-4.11,2.11-5.7,3.67c-1.6,1.56-2.83,3.37-3.7,5.45c-0.87,2.08-1.31,4.31-1.31,6.7c0,1.54,0.23,3.12,0.7,4.73
		c0.46,1.61,1.28,3.09,2.44,4.43c1.16,1.34,2.72,2.42,4.68,3.23c1.96,0.81,4.42,1.22,7.38,1.22c1.51,0,2.75-0.09,3.72-0.26
		c0.97-0.17,1.92-0.44,2.85-0.79c0.26-0.67,0.52-1.27,0.76-1.81c0.25-0.54,0.53-1.13,0.85-1.77l-0.39-0.31
		c-1.07,0.9-2.26,1.56-3.57,1.96c-1.31,0.41-2.66,0.61-4.05,0.61c-2.87,0-5.04-0.84-6.49-2.53c-1.45-1.69-2.18-3.94-2.18-6.76
		c0-1.83,0.22-3.72,0.65-5.67C929.93,37.95,930.62,36.16,931.56,34.55z"/>
	<path class="st1" d="M956.72,55.65c1.12,0.64,2.36,1.07,3.74,1.29c1.38,0.22,2.72,0.33,4.03,0.33c2.84,0,5.17-0.39,6.96-1.18
		c1.8-0.79,3.26-1.9,4.38-3.34c1.12-1.44,2-3.16,2.63-5.17c0.64-2.01,1.22-4.2,1.74-6.59c0.23-1.1,0.49-2.3,0.78-3.58
		c0.29-1.28,0.59-2.54,0.89-3.8c0.3-1.25,0.61-2.45,0.91-3.6c0.3-1.15,0.59-2.16,0.85-3.03c-0.73,0.15-1.38,0.22-1.96,0.22
		c-0.32,0-0.65-0.02-0.98-0.07c-0.33-0.04-0.67-0.09-1.02-0.15c-0.17,1.05-0.42,2.4-0.74,4.06c-0.32,1.66-0.66,3.35-1.02,5.08
		c-0.36,1.73-0.73,3.38-1.09,4.93c-0.36,1.56-0.67,2.77-0.94,3.64c-0.32,1.13-0.68,2.29-1.09,3.47s-0.98,2.25-1.72,3.21
		c-0.74,0.96-1.71,1.75-2.92,2.36s-2.76,0.92-4.68,0.92c-0.87,0-1.69-0.09-2.46-0.26c-0.77-0.17-1.44-0.46-2.02-0.85
		s-1.04-0.91-1.37-1.55c-0.33-0.64-0.5-1.44-0.5-2.4c0-0.58,0.04-1.17,0.11-1.77c0.07-0.6,0.2-1.35,0.37-2.25
		c0.12-0.61,0.29-1.45,0.52-2.51c0.23-1.06,0.49-2.19,0.76-3.38c0.28-1.19,0.55-2.36,0.83-3.49c0.28-1.13,0.51-2.08,0.72-2.84
		c0.32-1.08,0.62-2.14,0.91-3.19c0.29-1.05,0.58-2.11,0.87-3.19c-0.49,0.06-1.06,0.11-1.7,0.15c-0.64,0.04-1.29,0.07-1.96,0.07
		c-0.61,0-1.23-0.02-1.87-0.07c-0.64-0.04-1.21-0.09-1.7-0.15c-0.29,2.36-0.67,4.68-1.13,6.98c-0.46,2.3-0.99,4.6-1.57,6.89
		c-0.44,1.83-0.78,3.39-1.04,4.67c-0.26,1.28-0.39,2.47-0.39,3.58c0,1.6,0.36,2.93,1.09,3.99C954.68,54.16,955.6,55.01,956.72,55.65
		z"/>
	<path class="st1" d="M986.63,56.69c0.25,0,0.53,0.03,0.85,0.09c0.2-1.05,0.46-2.23,0.76-3.56c0.3-1.32,0.62-2.67,0.96-4.04
		c0.33-1.37,0.68-2.72,1.04-4.06c0.36-1.34,0.7-2.57,1-3.69c0.3-1.12,0.57-2.09,0.78-2.9c0.22-0.81,0.37-1.38,0.46-1.7
		c0.14,0.47,0.36,1.16,0.63,2.07c0.28,0.92,0.59,1.96,0.94,3.14c0.35,1.18,0.71,2.46,1.09,3.84c0.38,1.38,0.75,2.76,1.13,4.12
		c0.38,1.37,0.72,2.69,1.04,3.97c0.32,1.28,0.58,2.4,0.78,3.36c0.12-0.03,0.22-0.05,0.33-0.07s0.22-0.02,0.37-0.02
		s0.27,0.01,0.37,0.02s0.21,0.04,0.33,0.07c1.07-1.69,2.14-3.35,3.2-5c1.06-1.64,2.2-3.29,3.42-4.95c1.25-1.75,2.51-3.44,3.79-5.08
		c1.28-1.64,2.58-3.29,3.92-4.95c-0.23,1.63-0.5,3.32-0.8,5.08c-0.3,1.76-0.62,3.5-0.96,5.21c-0.33,1.72-0.67,3.37-1.02,4.95
		c-0.35,1.59-0.68,2.98-1,4.17c0.49-0.06,1.02-0.09,1.57-0.09c0.55,0,1.15,0,1.79,0c0.67,0,1.26,0,1.78,0s1.03,0.03,1.52,0.09
		c0.12-0.79,0.3-1.96,0.57-3.53c0.26-1.57,0.57-3.32,0.94-5.26c0.36-1.93,0.74-3.96,1.13-6.07c0.39-2.11,0.78-4.13,1.18-6.07
		c0.39-1.93,0.76-3.69,1.11-5.26c0.35-1.57,0.64-2.78,0.87-3.62c-0.38,0.06-0.76,0.11-1.15,0.15c-0.39,0.04-0.8,0.07-1.24,0.07
		c-0.67,0-1.36-0.07-2.09-0.22c-0.58,0.81-1.35,1.87-2.31,3.16c-0.96,1.29-2,2.68-3.11,4.15c-1.12,1.47-2.25,2.97-3.4,4.49
		c-1.15,1.53-2.21,2.92-3.18,4.19c-0.97,1.27-1.79,2.33-2.46,3.19c-0.67,0.86-1.07,1.37-1.22,1.55c-0.2-0.55-0.54-1.56-1.02-3.03
		c-0.48-1.47-1.02-3.17-1.61-5.11c-0.59-1.93-1.21-4.01-1.85-6.22c-0.64-2.21-1.22-4.33-1.74-6.37c-0.81,0.15-1.55,0.22-2.22,0.22
		s-1.36-0.07-2.09-0.22c-0.26,1.11-0.58,2.46-0.96,4.06c-0.38,1.6-0.79,3.32-1.24,5.17c-0.45,1.85-0.92,3.75-1.42,5.72
		c-0.49,1.96-0.98,3.87-1.46,5.72c-0.48,1.85-0.94,3.57-1.39,5.17c-0.45,1.6-0.85,2.92-1.2,3.97c0.46-0.06,1.02-0.09,1.65-0.09
		C986.1,56.69,986.38,56.69,986.63,56.69z"/>
	<path class="st1" d="M1027.17,56.69c0.64,0,1.29,0,1.96,0s1.29,0.03,1.87,0.09c0.2-1.4,0.38-2.62,0.54-3.69
		c0.16-1.06,0.33-2.09,0.52-3.1c0.19-1,0.41-2.08,0.65-3.23c0.25-1.15,0.56-2.55,0.94-4.21c0.75,0,1.45-0.01,2.09-0.04
		c0.64-0.03,1.46-0.04,2.48-0.04h2.26c1.71,0,3.03,0.01,3.96,0.02c0.93,0.02,1.73,0.04,2.39,0.07c-0.32,1.54-0.62,2.95-0.89,4.23
		c-0.28,1.28-0.55,2.49-0.83,3.62c-0.28,1.13-0.55,2.23-0.83,3.27s-0.57,2.08-0.89,3.1c0.52-0.06,1.07-0.09,1.65-0.09
		c0.58,0,1.19,0,1.83,0c0.58,0,1.18,0,1.81,0s1.23,0.03,1.81,0.09c0.52-3.11,1.07-6.15,1.63-9.12c0.57-2.97,1.13-5.74,1.7-8.31
		c0.57-2.57,1.12-4.92,1.65-7.03c0.54-2.11,1.05-3.89,1.54-5.35c-0.46,0.06-0.95,0.11-1.46,0.15c-0.51,0.04-1.1,0.07-1.76,0.07
		c-0.67,0-1.34-0.02-2.02-0.07c-0.68-0.04-1.27-0.09-1.76-0.15c-0.15,0.9-0.33,1.96-0.54,3.16c-0.22,1.21-0.45,2.41-0.7,3.6
		c-0.25,1.19-0.48,2.3-0.7,3.32c-0.22,1.02-0.38,1.77-0.5,2.27c-0.93,0.03-1.87,0.05-2.81,0.07c-0.94,0.01-1.88,0.02-2.81,0.02
		c-1.33,0-2.69-0.01-4.07-0.02c-1.38-0.01-2.58-0.04-3.59-0.07c0.09-0.41,0.23-1.07,0.43-1.99c0.2-0.92,0.44-1.96,0.72-3.12
		c0.28-1.16,0.58-2.38,0.91-3.64c0.33-1.27,0.67-2.47,1.02-3.6c-0.43,0.06-0.93,0.11-1.48,0.15c-0.55,0.04-1.21,0.07-1.96,0.07
		c-0.7,0-1.33-0.02-1.92-0.07c-0.58-0.04-1.13-0.09-1.65-0.15c-0.15,1.02-0.35,2.27-0.61,3.75c-0.26,1.48-0.56,3.11-0.89,4.87
		c-0.33,1.76-0.7,3.6-1.09,5.52c-0.39,1.92-0.81,3.82-1.24,5.69c-0.43,1.88-0.88,3.67-1.35,5.39c-0.46,1.72-0.91,3.24-1.35,4.58
		c0.49-0.06,0.99-0.09,1.5-0.09C1025.87,56.69,1026.48,56.69,1027.17,56.69z"/>
	<path class="st1" d="M1064.46,55.65c1.12,0.64,2.36,1.07,3.74,1.29c1.38,0.22,2.72,0.33,4.03,0.33c2.84,0,5.17-0.39,6.96-1.18
		c1.8-0.79,3.26-1.9,4.38-3.34c1.12-1.44,2-3.16,2.63-5.17c0.64-2.01,1.22-4.2,1.74-6.59c0.23-1.1,0.49-2.3,0.78-3.58
		c0.29-1.28,0.59-2.54,0.89-3.8c0.3-1.25,0.61-2.45,0.91-3.6c0.3-1.15,0.59-2.16,0.85-3.03c-0.73,0.15-1.38,0.22-1.96,0.22
		c-0.32,0-0.65-0.02-0.98-0.07c-0.33-0.04-0.67-0.09-1.02-0.15c-0.17,1.05-0.42,2.4-0.74,4.06c-0.32,1.66-0.66,3.35-1.02,5.08
		c-0.36,1.73-0.73,3.38-1.09,4.93c-0.36,1.56-0.67,2.77-0.94,3.64c-0.32,1.13-0.68,2.29-1.09,3.47s-0.98,2.25-1.72,3.21
		c-0.74,0.96-1.71,1.75-2.92,2.36s-2.76,0.92-4.68,0.92c-0.87,0-1.69-0.09-2.46-0.26c-0.77-0.17-1.44-0.46-2.02-0.85
		s-1.04-0.91-1.37-1.55c-0.33-0.64-0.5-1.44-0.5-2.4c0-0.58,0.04-1.17,0.11-1.77c0.07-0.6,0.2-1.35,0.37-2.25
		c0.12-0.61,0.29-1.45,0.52-2.51c0.23-1.06,0.49-2.19,0.76-3.38c0.28-1.19,0.55-2.36,0.83-3.49c0.28-1.13,0.51-2.08,0.72-2.84
		c0.32-1.08,0.62-2.14,0.91-3.19c0.29-1.05,0.58-2.11,0.87-3.19c-0.49,0.06-1.06,0.11-1.7,0.15c-0.64,0.04-1.29,0.07-1.96,0.07
		c-0.61,0-1.23-0.02-1.87-0.07c-0.64-0.04-1.21-0.09-1.7-0.15c-0.29,2.36-0.67,4.68-1.13,6.98c-0.46,2.3-0.99,4.6-1.57,6.89
		c-0.44,1.83-0.78,3.39-1.04,4.67c-0.26,1.28-0.39,2.47-0.39,3.58c0,1.6,0.36,2.93,1.09,3.99
		C1062.42,54.16,1063.34,55.01,1064.46,55.65z"/>
	<path class="st1" d="M1095.82,56.69c0.64,0,1.25,0,1.85,0s1.14,0.03,1.63,0.09c0.12-0.61,0.27-1.43,0.46-2.44
		c0.19-1.02,0.41-2.14,0.65-3.36c0.25-1.22,0.51-2.52,0.78-3.88c0.28-1.37,0.57-2.73,0.89-4.1h0.83c0.93,2.3,1.8,4.6,2.61,6.89
		c0.81,2.3,1.58,4.6,2.31,6.89c0.46-0.06,0.97-0.09,1.52-0.09c0.55,0,1.22,0,2,0c0.58,0,1.17,0,1.76,0s1.18,0.03,1.76,0.09
		c-0.17-0.35-0.42-0.89-0.74-1.61c-0.32-0.73-0.67-1.54-1.07-2.44c-0.39-0.9-0.8-1.86-1.22-2.88c-0.42-1.02-0.82-1.99-1.2-2.92
		c-0.38-0.93-0.72-1.8-1.02-2.6c-0.3-0.8-0.54-1.43-0.72-1.9c1.07-0.15,2.1-0.43,3.07-0.85c0.97-0.42,1.82-0.97,2.55-1.66
		c0.72-0.68,1.31-1.51,1.74-2.47s0.65-2.05,0.65-3.27c0-1.28-0.2-2.37-0.61-3.27c-0.41-0.9-0.98-1.64-1.72-2.23
		c-0.74-0.58-1.62-1.01-2.63-1.29c-1.02-0.28-2.12-0.41-3.31-0.41c-1.22,0-2.3,0.04-3.24,0.11c-0.94,0.07-1.88,0.11-2.81,0.11
		c-0.67,0-1.31-0.02-1.92-0.07c-0.61-0.04-1.16-0.09-1.65-0.15c-0.12,0.79-0.31,1.94-0.59,3.45c-0.28,1.51-0.6,3.21-0.98,5.08
		c-0.38,1.88-0.79,3.85-1.24,5.93c-0.45,2.08-0.89,4.09-1.33,6.04c-0.44,1.95-0.86,3.75-1.26,5.39s-0.75,2.95-1.04,3.91
		c0.41-0.06,0.88-0.09,1.41-0.09S1095.15,56.69,1095.82,56.69z M1103.13,37.54c0.23-1.16,0.46-2.26,0.67-3.29
		c0.22-1.03,0.42-1.96,0.61-2.79c0.19-0.83,0.36-1.51,0.5-2.03c0.14-0.03,0.33-0.04,0.57-0.04h0.52c0.49,0,1,0.06,1.52,0.17
		c0.52,0.12,1,0.34,1.44,0.68c0.44,0.33,0.79,0.8,1.07,1.4c0.28,0.6,0.41,1.36,0.41,2.29c0,0.99-0.12,1.92-0.37,2.79
		c-0.25,0.87-0.62,1.64-1.13,2.29c-0.51,0.65-1.15,1.17-1.94,1.55c-0.78,0.38-1.7,0.57-2.74,0.57c-0.26,0-0.54-0.01-0.85-0.02
		c-0.3-0.01-0.62-0.04-0.94-0.07C1102.68,39.87,1102.9,38.7,1103.13,37.54z"/>
	<path class="st1" d="M1122.85,56.69c0.58,0,1.16,0,1.74,0c0.58,0,1.25,0.03,2,0.09c0.2-1.6,0.52-3.58,0.96-5.93
		s0.95-4.87,1.54-7.55c0.59-2.68,1.25-5.43,1.98-8.25c0.72-2.82,1.48-5.51,2.26-8.07c-0.49,0.06-1.02,0.11-1.57,0.15
		c-0.55,0.04-1.19,0.07-1.92,0.07c-0.64,0-1.28-0.02-1.92-0.07c-0.64-0.04-1.23-0.09-1.78-0.15c-0.06,0.41-0.12,0.88-0.2,1.42
		c-0.07,0.54-0.18,1.21-0.33,2.01c-0.15,0.8-0.33,1.76-0.57,2.88c-0.23,1.12-0.52,2.48-0.87,4.08c-0.58,2.71-1.09,5.03-1.52,6.98
		c-0.44,1.95-0.84,3.67-1.22,5.15c-0.38,1.48-0.73,2.8-1.04,3.95c-0.32,1.15-0.65,2.26-1,3.34c0.46-0.06,1.01-0.09,1.65-0.09
		S1122.3,56.69,1122.85,56.69z"/>
	<path class="st1" d="M1140.83,35.33c0.58,1.7,1.15,3.37,1.7,5.02c0.55,1.64,1,3,1.35,4.08c-0.15,0.84-0.33,1.81-0.54,2.9
		s-0.45,2.2-0.7,3.34c-0.25,1.13-0.5,2.24-0.76,3.32c-0.26,1.08-0.51,2.01-0.74,2.79c0.49-0.06,0.99-0.09,1.48-0.09
		c0.49,0,1.12,0,1.87,0c0.78,0,1.46,0,2.02,0c0.57,0,1.05,0.03,1.46,0.09c0.32-2.12,0.68-4.23,1.09-6.33
		c0.41-2.09,0.86-4.23,1.35-6.41c0.55-0.84,1.31-1.94,2.26-3.29c0.96-1.35,2.02-2.81,3.2-4.39c1.17-1.57,2.4-3.18,3.68-4.82
		c1.28-1.64,2.51-3.16,3.7-4.56c-0.41,0.06-0.8,0.11-1.18,0.15c-0.38,0.04-0.81,0.07-1.31,0.07s-0.91-0.02-1.24-0.07
		c-0.33-0.04-0.66-0.09-0.98-0.15c-0.23,0.38-0.67,1.06-1.31,2.05c-0.64,0.99-1.39,2.15-2.26,3.47c-0.87,1.32-1.83,2.74-2.87,4.25
		c-1.04,1.51-2.09,2.98-3.13,4.41c-0.58-1.89-1.07-3.52-1.46-4.89c-0.39-1.37-0.73-2.59-1-3.67c-0.28-1.08-0.52-2.06-0.74-2.95
		c-0.22-0.89-0.43-1.78-0.63-2.68c-0.49,0.06-1.04,0.11-1.63,0.15c-0.6,0.04-1.31,0.07-2.16,0.07c-0.75,0-1.39-0.02-1.89-0.07
		c-0.51-0.04-1.02-0.09-1.54-0.15c0.32,0.84,0.74,2.02,1.26,3.53C1139.7,32.02,1140.25,33.63,1140.83,35.33z"/>
	<path class="st1" d="M1161.63,56.78c1.16-0.06,2.4-0.09,3.72-0.09s2.76,0,4.33,0c1.31,0,2.71,0,4.2,0c1.49,0,3.11,0.03,4.85,0.09
		c-0.06-0.35-0.05-0.74,0.02-1.18s0.3-1.09,0.67-1.96c-0.61,0.06-1.16,0.11-1.65,0.15c-0.49,0.04-0.99,0.07-1.48,0.09
		c-0.49,0.02-1.02,0.03-1.57,0.04c-0.55,0.02-1.19,0.02-1.92,0.02h-3.48c0.23-1.95,0.53-3.89,0.89-5.83
		c0.36-1.93,0.75-3.86,1.15-5.78c1.57,0,3.24,0.02,5.01,0.07c1.77,0.04,3.41,0.15,4.92,0.33c-0.03-0.46-0.02-0.93,0.02-1.4
		c0.04-0.46,0.27-1.13,0.67-2.01c-0.46,0.03-0.93,0.06-1.39,0.09c-0.46,0.03-0.94,0.06-1.44,0.09c-0.49,0.03-1.04,0.04-1.65,0.04
		c-0.58,0-1.25,0-2,0H1172c0.23-1.16,0.54-2.62,0.94-4.36c0.39-1.75,0.83-3.49,1.33-5.24c1.54,0,2.81,0.01,3.81,0.02
		s1.86,0.04,2.59,0.09c0.72,0.04,1.35,0.09,1.87,0.13c0.52,0.04,1.07,0.09,1.65,0.15c-0.06-0.61-0.04-1.13,0.04-1.57
		s0.32-1.03,0.7-1.79c-0.99,0.06-2.14,0.11-3.46,0.15c-1.32,0.04-2.74,0.07-4.24,0.07c-1.57,0-3.19-0.01-4.85-0.02
		c-1.67-0.01-3.16-0.08-4.46-0.2c-0.12,0.93-0.31,2.2-0.59,3.8c-0.28,1.6-0.59,3.35-0.96,5.26c-0.36,1.91-0.75,3.9-1.17,5.98
		c-0.42,2.08-0.85,4.07-1.28,5.98s-0.85,3.64-1.24,5.19C1162.27,54.74,1161.92,55.94,1161.63,56.78z"/>
	<path class="st1" d="M1208.34,27.06c-0.7,0.03-1.43,0.06-2.2,0.09c-0.77,0.03-1.56,0.04-2.37,0.04s-1.6,0-2.35,0h-2.74
		c-1.92,0-3.75-0.02-5.51-0.07c-1.76-0.04-3.5-0.09-5.25-0.15c-0.06,0.7-0.15,1.27-0.26,1.72c-0.12,0.45-0.29,1.01-0.52,1.68
		c1.1-0.09,2.1-0.15,3-0.2c0.9-0.04,1.87-0.07,2.92-0.07h2.26c-0.32,1.92-0.66,3.8-1.02,5.65c-0.36,1.85-0.75,3.7-1.15,5.56
		c-0.55,2.65-1.16,5.26-1.83,7.83c-0.67,2.57-1.33,5.11-2,7.61c0.49-0.06,1.04-0.09,1.63-0.09s1.2,0,1.81,0s1.22,0,1.83,0
		s1.23,0.03,1.87,0.09c0.38-2.5,0.83-4.97,1.35-7.42c0.52-2.44,1.06-4.93,1.61-7.46c0.55-2.47,1.07-4.64,1.54-6.5
		c0.48-1.86,0.94-3.62,1.37-5.28c1.02,0,2.1,0.02,3.26,0.07c1.16,0.04,2.44,0.14,3.83,0.28c0.09-0.81,0.17-1.45,0.26-1.9
		c0.09-0.45,0.25-0.98,0.48-1.59C1209.65,27.01,1209.04,27.04,1208.34,27.06z"/>
	<path class="st1" d="M1073.42,126.74c0-0.05,0.05-0.1,0.05-0.15c0.65-1.32,1.61-2.5,2.05-3.9c0.76-0.9,1.33-2.1,1.79-3.18h0.05
		c0.96-1.43,1.72-3.07,2.72-4.51c0-0.05,0-0.1,0.05-0.1c0.37-0.71,0.79-1.15,1.13-1.84c1.03-1.34,1.99-2.81,2.87-4.26
		c0.34-1.35-1.14-2.44-2.25-2.87c-0.46-0.1-0.8,0.61-1.03,0.92c-0.26,0.46-0.68,1.03-0.97,1.48c-0.4,0.63-0.86,1.25-1.18,1.8
		c-1.18,1.72-2.27,3.59-3.38,5.33c-0.82,1.25-1.74,2.45-2.82,3.49c-1.01,1.12-2.1,2.21-3.28,3.18c-8.02,6.19-3.8,0.14-1.38-4.2
		c1.06-1.55,2.03-3.24,3.08-4.82c0.7-0.97,1.3-2.04,2-2.97c0-0.05,0.05-0.1,0.05-0.15c0.66-0.7,0.66-1.69-0.05-2.36
		c-0.52-0.52-1.45-1.67-2.25-1.23v0.05c-0.36,0.46-0.62,0.82-0.92,1.23c-0.3,0.44-0.53,0.92-0.92,1.28
		c-1.6,2.53-3.37,4.92-4.77,7.53c-5.49,9.04-0.96,13.5,7.18,6c0.05,0.1,0,0.2-0.05,0.25c-0.5,0.98-1.15,1.93-1.59,2.97
		c-0.85,0.89-1.05,2.85-2.2,3.33c-0.76-0.06-1.64-0.37-2.46-0.26c-0.21,0.01-0.21-0.01-0.41-0.05c-0.05-0.05-0.1-0.05-0.16-0.1
		c-4.03-0.23-9.74-0.26-11.69,4.1c-1.05,2.45-0.3,5.54,2.31,6.46c5.04,1.98,10.71-1.32,13.74-5.23c0.43-0.79,4.62-6.09,4.2-6.87
		C1073.21,127.1,1073.32,126.89,1073.42,126.74z M1066.65,130.84c-8.12,15.55-19.98,2.37-7.89-0.51l0.05-0.05
		c0.66-0.16,1.52-0.12,2.15-0.31c0.16,0,0.2-0.12,0.31,0c1.79,0.17,3.63,0.08,5.38,0.51v0.05
		C1066.76,130.54,1066.68,130.77,1066.65,130.84z"/>
	<path class="st1" d="M1201.62,110.88c0-0.05,0-0.05,0-0.05c0.05,0,0.05-0.05,0-0.1c0-0.05,0-0.15-0.05-0.2
		c-0.26-0.15-0.46-0.15-0.71-0.1c-0.15,0.1-0.26,0.15-0.31,0.31l-0.05,0.05c-0.05,0.05-0.1,0.15-0.15,0.2
		c-0.41,0.46-0.71,0.92-1.02,1.38c-0.1,0.1-0.2,0.26-0.31,0.36c-0.05,0.1-0.1,0.2-0.2,0.26c-0.05,0.1-0.1,0.15-0.1,0.2
		c-0.15,0.2-0.31,0.41-0.46,0.66c-0.05,0.1-0.1,0.15-0.2,0.26c-0.31,0.36-0.61,0.77-0.92,1.17v0.05c-0.1,0.15-0.26,0.31-0.36,0.46
		c-0.1,0.1-0.2,0.26-0.31,0.41c-0.1,0.1-0.2,0.26-0.2,0.41c-0.05,0-0.05,0.05-0.1,0.05c-0.1,0.05-0.15,0.1-0.26,0.2
		c-0.1,0.15-0.2,0.26-0.31,0.41c-0.15,0.15-0.26,0.31-0.41,0.46c0,0.05-0.05,0.1-0.1,0.15c0,0.05-0.05,0.05-0.05,0.1l-0.1,0.1
		c-0.1,0.15-0.26,0.31-0.41,0.51c-0.15,0.1-0.26,0.31-0.36,0.51c-0.05,0-0.15,0-0.2,0.1c-0.2,0.2-0.36,0.41-0.51,0.56
		c-0.2,0.2-0.36,0.46-0.61,0.66c-0.05,0.05-0.1,0.1-0.15,0.15c-0.26,0.31-0.56,0.56-0.82,0.87c-0.15,0.15-0.31,0.26-0.51,0.46
		c-0.1,0.1-0.15,0.2-0.26,0.31c0,0.05-0.1,0.1-0.15,0.15c-0.05,0.05-0.15,0.1-0.2,0.2c-0.15,0.15-0.31,0.25-0.46,0.36
		c-0.15,0.15-0.31,0.31-0.51,0.46l-0.26,0.2c-0.26,0.15-0.46,0.36-0.71,0.51c-0.1,0.1-0.26,0.2-0.41,0.26
		c-0.15,0.1-0.36,0.2-0.51,0.31c-0.15,0.1-0.31,0.15-0.41,0.26c-0.41,0.2-0.82,0.36-1.28,0.41c-0.26,0-0.46-0.1-0.56-0.26
		c-0.1-0.1-0.2-0.2-0.31-0.26c0.1-0.1,0.15-0.26,0.15-0.41c0-0.1,0-0.15,0-0.26v-0.05c0.05-0.05,0.05-0.15,0.1-0.2
		c0.15-0.66,0.31-1.33,0.61-1.89c0.05-0.15,0.15-0.31,0.2-0.51l0.05-0.1c0.1-0.2,0.26-0.46,0.36-0.71c0.26-0.41,0.46-0.82,0.66-1.28
		c0.15-0.2,0.26-0.41,0.31-0.66l0.05-0.05c0.05-0.1,0.15-0.15,0.15-0.2c0.15-0.26,0.31-0.51,0.46-0.71c0.05-0.15,0.1-0.26,0.15-0.36
		c0.05-0.05,0.1-0.1,0.1-0.15l0.05-0.05c0.05-0.05,0.1-0.15,0.15-0.26c0.15-0.26,0.36-0.51,0.51-0.77c0.05-0.15,0.15-0.31,0.26-0.46
		c0.36-0.56,0.77-1.17,1.12-1.74c0.15-0.26,0.36-0.51,0.51-0.77c0.05-0.1,0.1-0.15,0.15-0.26c0.1-0.15,0.1-0.31,0.05-0.41
		c0.2,0,0.31-0.1,0.41-0.26c0.15-0.2,0.26-0.41,0.41-0.61c0.1-0.1,0.2-0.26,0.31-0.41c0-0.05,0.05-0.15,0.1-0.2
		c0.05-0.05,0.1-0.15,0.15-0.26c0.15-0.15,0.26-0.36,0.41-0.56c0.1-0.15,0.26-0.36,0.36-0.56c0.15-0.15,0.2-0.31,0.26-0.46
		c0.1-0.36,0.05-0.66-0.1-0.92c-0.05-0.05-0.1-0.1-0.1-0.15c-0.26-0.56-1.12-1.23-1.74-1.53c-0.1-0.1-0.2-0.1-0.31-0.15
		c-0.2-0.05-0.36,0-0.51,0.15c-0.15,0.1-0.26,0.31-0.36,0.46c-0.51,0.71-0.97,1.48-1.43,2.19c-0.31,0.46-0.61,0.92-0.92,1.33
		c-0.05,0.15-0.15,0.26-0.2,0.36c-0.05,0.05-0.1,0.05-0.2,0.1c-0.05-0.05-0.05-0.1-0.05-0.1c0-0.1,0-0.2-0.05-0.31v-0.05
		c0-0.1,0-0.2,0-0.31c-0.05-0.2-0.05-0.41-0.1-0.61c-0.2-1.48-2.14-3.37-3.68-3.37c-0.15,0-0.31,0-0.41,0c-0.26,0-0.51,0-0.71,0.15
		c-0.15,0.05-0.31,0.1-0.46,0.1c-0.1,0-0.2,0.05-0.31,0.1c-0.1,0.05-0.2,0.05-0.31,0.1c-0.05,0.05-0.15,0.05-0.2,0.1
		c-0.77,0.36-1.74,1.02-2.3,1.63c-0.1,0.15-0.26,0.26-0.46,0.36c-0.05,0.1-0.1,0.15-0.2,0.2c-0.15,0.15-0.31,0.31-0.46,0.51
		l-0.15,0.1c-0.41,0.46-0.82,0.92-1.17,1.43c-0.1,0.1-0.2,0.26-0.26,0.41c-0.05,0.05-0.1,0.1-0.15,0.15c-0.1,0.05-0.15,0.1-0.2,0.15
		l-0.1,0.2c-0.25,0.36-0.56,0.77-0.77,1.17c-0.05,0.05-0.1,0.1-0.1,0.15c-0.05,0-0.05,0.05-0.1,0.1l-0.1,0.15
		c-0.29,0.49-0.56,0.97-0.82,1.47c-0.1,0.12-0.19,0.25-0.3,0.37c-0.1,0.1-0.15,0.26-0.26,0.36c-0.1,0.15-0.2,0.26-0.31,0.41
		c-0.05,0.05-0.15,0.1-0.2,0.2c-0.56,0.71-1.12,1.43-1.74,2.09c-0.1,0.1-0.15,0.2-0.26,0.31c-0.1,0.2-0.26,0.36-0.41,0.51
		c-0.26,0.26-0.46,0.51-0.71,0.77c-0.05,0.1-0.15,0.2-0.31,0.36c-0.1,0.1-0.2,0.2-0.31,0.31c-0.26,0.31-0.51,0.56-0.77,0.82
		c-0.1,0.1-0.26,0.2-0.36,0.31c-0.2,0.26-0.41,0.46-0.61,0.61c-0.05,0.05-0.05,0.1-0.1,0.1c-0.05,0.05-0.1,0.15-0.2,0.2
		c-0.1,0.05-0.2,0.15-0.26,0.31c-0.36,0.15-0.61,0.41-0.92,0.61v0.05c-0.31,0.26-0.56,0.41-0.82,0.56c-0.1,0.05-0.15,0.1-0.26,0.2
		c-0.05,0.05-0.15,0.1-0.26,0.15c-0.05,0-0.05,0-0.1,0.05c-0.1,0-0.15,0.05-0.2,0.05c-0.26,0.1-0.51,0.2-0.77,0.36
		c-0.26,0.1-0.56,0.1-0.77,0.1c-0.26,0-0.41-0.1-0.56-0.36c-0.1-0.26-0.1-0.51-0.05-0.87c0.05-0.15,0.1-0.36,0.15-0.51
		c0.05-0.15,0.1-0.36,0.1-0.61c0.1-0.15,0.15-0.26,0.2-0.46c0.05-0.05,0.1-0.15,0.1-0.2l0.1-0.2c0.2-0.46,0.41-0.97,0.66-1.48
		c0-0.05,0-0.1,0.05-0.1c0.2-0.31,0.41-0.71,0.61-1.12c0.05-0.05,0.05-0.1,0.1-0.2c0.2-0.15,0.31-0.36,0.36-0.56
		c0.05-0.1,0.05-0.1,0.05-0.15c0.15-0.1,0.26-0.2,0.31-0.31c0.1-0.2,0.2-0.36,0.31-0.51c0.15-0.26,0.31-0.46,0.41-0.66
		c0.05-0.1,0.15-0.2,0.1-0.36c0.2-0.1,0.26-0.2,0.36-0.31v-0.05c0,0,0-0.05,0.05-0.05c0.46-0.66,0.87-1.38,1.28-2.04
		c0.46-0.66,0.87-1.38,1.33-2.04c0.66-1.02,1.33-2.04,1.99-3.06c0.56-0.92,1.17-1.84,1.74-2.76c0.05-0.05,0.05-0.05,0.1-0.1
		c0-0.05,0.05-0.1,0.1-0.15c0.1-0.15,0.15-0.26,0.26-0.41c0-0.1,0.05-0.15,0.1-0.2c0.36-0.51,0.71-1.07,1.07-1.63
		c0.05-0.1,0.1-0.2,0.2-0.31c0.1-0.15,0.2-0.36,0.36-0.51c0.31-0.46,0.61-0.92,0.92-1.38c0.15-0.26,0.31-0.51,0.51-0.77
		c0.46-0.71,0.92-1.38,1.33-2.09c0.2-0.26,0.36-0.51,0.56-0.77c0-0.1,0.05-0.15,0.1-0.2c0.05-0.15,0.15-0.26,0.26-0.36
		c0.05-0.05,0.05-0.15,0.15-0.31c0.05-0.1,0.05-0.26,0.05-0.36v-0.05c-0.05-0.2-0.1-0.41-0.31-0.77c-0.05,0-0.05-0.05-0.1-0.1
		c0-0.05-0.05-0.1-0.05-0.1c-0.51-0.61-1.12-1.07-1.84-1.43h-0.26c-0.31,0.1-0.46,0.31-0.61,0.56c-0.15,0.26-0.31,0.46-0.46,0.61
		c0,0.05-0.05,0.1-0.15,0.26l-0.05,0.1c-0.1,0.15-0.26,0.31-0.36,0.46c-0.05,0.1-0.05,0.15-0.1,0.26l-0.05,0.05
		c-0.05,0.05-0.1,0.1-0.1,0.15c-0.1,0.15-0.15,0.26-0.26,0.41c-0.2,0.31-0.46,0.61-0.66,0.97l-0.1,0.15
		c-0.05,0.1-0.15,0.26-0.15,0.41c0.05,0.05,0,0.1-0.05,0.1c-0.15,0.05-0.26,0.15-0.36,0.31c-0.1,0.15-0.2,0.31-0.31,0.46
		c-0.1,0.1-0.15,0.26-0.15,0.46c-0.15,0.05-0.26,0.2-0.36,0.31c-0.2,0.31-0.36,0.61-0.56,0.92c-0.2,0.26-0.41,0.56-0.61,0.87
		c0,0.05-0.05,0.1-0.1,0.15c0,0.05-0.05,0.15-0.1,0.2c-0.2,0.31-0.46,0.66-0.71,1.07c-0.15,0.26-0.31,0.51-0.51,0.77
		c-0.15,0.31-0.36,0.56-0.56,0.87c-0.31,0.46-0.61,0.92-0.92,1.43c-0.1,0.1-0.2,0.26-0.31,0.41c-0.26,0.41-0.51,0.77-0.77,1.23
		c-0.05,0-0.05,0.05-0.1,0.1c-0.05,0.15-0.15,0.26-0.2,0.41c-0.05,0.1-0.1,0.15-0.15,0.2c-0.1,0.1-0.15,0.15-0.2,0.26
		c-0.05,0.1-0.15,0.26-0.2,0.36c-0.1,0.15-0.2,0.31-0.26,0.46c-0.15,0.2-0.26,0.36-0.41,0.56c-0.05,0.05-0.15,0.15-0.2,0.2
		c0,0.05-0.05,0.1-0.1,0.1s-0.1,0-0.1,0c0-0.05,0-0.05,0-0.05c0.05-0.2,0-0.41-0.05-0.56c0-0.1,0-0.15-0.05-0.26
		c0-0.31-0.1-0.82-0.41-1.02c0.05-0.1,0.05-0.26-0.05-0.36c-0.41-0.92-1.74-1.94-2.76-2.19c-0.41-0.15-0.77-0.1-1.12-0.1
		c-0.31,0-0.61,0.1-0.92,0.2c-0.05,0-0.1,0.05-0.15,0.05c-0.15,0.05-0.36,0.15-0.51,0.26c-0.05,0.05-0.1,0.05-0.15,0.05
		c-0.31,0.1-0.61,0.26-0.82,0.46c-0.1,0.05-0.15,0.1-0.2,0.1c-0.15,0.1-0.31,0.2-0.46,0.36c-0.15,0.1-0.31,0.2-0.46,0.36
		c-0.05,0.05-0.1,0.1-0.26,0.15c0,0.05-0.1,0.1-0.1,0.15c-0.15,0.15-0.31,0.26-0.51,0.46c-2.64,2.47-4.54,5.36-5.69,8.73h-0.05
		c-0.66,0.82-1.38,1.63-2.19,2.5c-0.05,0.1-0.15,0.2-0.2,0.31l-0.05,0.1c-0.15,0.1-0.31,0.2-0.46,0.41
		c-0.41,0.41-0.87,0.82-1.28,1.28c-0.05,0.05-0.1,0.05-0.15,0.1c-0.15,0.2-0.36,0.36-0.51,0.56c-0.2,0.15-0.36,0.31-0.56,0.46
		c0,0.05-0.05,0.1-0.2,0.15c-0.1,0.1-0.2,0.15-0.31,0.2c-0.26,0.2-0.46,0.36-0.71,0.51c-0.61,0.46-1.33,0.82-2.04,1.02
		c-0.2,0.05-0.41,0.05-0.66,0.05c-0.31,0-0.46-0.31-0.51-0.61c-0.05-0.25-0.05-0.46,0-0.61c0.1-0.46,0.2-1.02,0.41-1.48
		c0.05-0.15,0.1-0.36,0.2-0.51c0.1-0.36,0.2-0.66,0.41-0.92c0.05-0.15,0.15-0.31,0.2-0.46c1.22-2.4,2.65-4.59,4.24-6.74
		c0.2-0.26,0.41-0.56,0.61-0.82c0.1-0.1,0.15-0.26,0.2-0.36c0.1-0.15,0.2-0.31,0.31-0.41c0.15-0.2,0.26-0.36,0.31-0.56
		c0-0.05,0-0.1,0.1-0.15c0.46-0.26,1.07-1.38,1.17-1.94c0.1-0.25,0.1-1.28,0-1.58c-0.15-0.56-0.46-1.02-0.92-1.33
		c-0.61-0.41-1.33-0.61-2.04-0.51c-2.09,0.31-4.59,2.5-6.07,4.08c-0.61,0.66-1.28,1.33-1.79,1.89c-0.26,0.26-0.46,0.51-0.61,0.77
		c-0.2,0.26-0.36,0.51-0.61,0.66c-0.1,0.1-0.15,0.15-0.2,0.26c0,0-0.05,0.05-0.05,0.1l-0.05,0.05c-0.1,0.1-0.2,0.2-0.31,0.31
		c0,0-0.05,0-0.15,0.05c0-0.05,0-0.15,0.05-0.15c0.05-0.1,0.1-0.26,0.2-0.36c0.26-0.46,0.51-0.87,0.82-1.33
		c0.46-0.77,0.97-1.53,1.43-2.3c0.2-0.31,0.36-0.61,0.46-0.87c0.2-0.36,0.2-0.77,0-1.17c-0.31-0.66-1.33-1.58-2.09-1.74
		c-0.15-0.05-0.31,0-0.46,0.1c-0.1,0.15-0.2,0.26-0.26,0.36c-0.36,0.56-0.66,1.02-0.97,1.48c-0.05,0.1-0.1,0.15-0.1,0.2
		c-0.1,0.15-0.26,0.31-0.46,0.71c-0.05,0.05-0.1,0.1-0.15,0.15c-0.1,0.15-0.15,0.31-0.26,0.41c-0.26,0.41-0.51,0.77-0.72,1.17
		c-0.05,0.05-0.1,0.1-0.15,0.2c-0.1,0.15-0.2,0.31-0.31,0.41c-0.15,0.26-0.31,0.51-0.46,0.77c-0.24,0.29-0.26,0.36-0.35,0.67
		c-0.02,0.03-0.04,0.06-0.06,0.09c-0.18,0.15-0.32,0.33-0.46,0.57l-0.09,0.15c-0.04,0.06-0.09,0.13-0.16,0.2
		c-0.05,0.05-0.1,0.15-0.15,0.2c-0.1,0.15-0.2,0.26-0.31,0.41c-0.1,0.1-0.15,0.26-0.31,0.36c0,0.05-0.05,0.1-0.1,0.2
		c-0.26,0.31-0.51,0.61-0.77,0.97c-0.2,0.2-0.36,0.41-0.51,0.61c-0.05,0.05-0.1,0.1-0.1,0.15c-0.05,0.1-0.1,0.15-0.15,0.2
		c-0.15,0.15-0.31,0.31-0.46,0.51c-0.05,0.05-0.15,0.15-0.2,0.26c-0.15,0.15-0.26,0.26-0.41,0.41c-0.87,1.02-1.74,1.99-2.65,2.96
		c-0.41,0.36-0.77,0.77-1.22,1.12c-0.1,0.1-0.15,0.2-0.2,0.26c-0.05,0.1-0.15,0.15-0.2,0.2c-0.1,0.05-0.15,0.1-0.26,0.15
		c-0.05,0.1-0.1,0.15-0.2,0.2c-0.05,0.05-0.1,0.05-0.2,0.15c-0.15,0.1-0.26,0.2-0.41,0.31c-0.15,0.1-0.31,0.26-0.51,0.36
		c-0.05,0.05-0.1,0.1-0.15,0.15c-0.1,0.05-0.15,0.1-0.26,0.1c-0.41,0.26-0.77,0.46-1.17,0.61c-0.31,0.1-0.61,0.15-0.97,0.15
		c-0.15,0-0.26-0.05-0.41-0.15c-0.2-0.36-0.26-0.66-0.15-1.02c0.05-0.15,0.05-0.26,0.05-0.46c0-0.1,0.05-0.2,0.1-0.31
		c0.05-0.26,0.15-0.46,0.26-0.71c0.1-0.36,0.26-0.71,0.41-1.07c0.15-0.31,0.31-0.61,0.46-0.92c0.15-0.2,0.2-0.41,0.15-0.56
		c0.26-0.2,0.26-0.2,0.36-0.36c0-0.05,0.05-0.1,0.1-0.15c0.05-0.15,0.15-0.31,0.2-0.41l0.31-0.51c0.15-0.31,0.31-0.61,0.46-0.87
		c0.05-0.05,0.05-0.1,0.1-0.15c0-0.05,0.05-0.05,0.05-0.1c0.15-0.15,0.26-0.36,0.36-0.51c0.1-0.26,0.26-0.46,0.41-0.66
		c0.05-0.1,0.1-0.2,0.15-0.31l0.1-0.1c0.2-0.31,0.36-0.56,0.56-0.87c0.05-0.15,0.15-0.31,0.26-0.41c0.05-0.05,0.05-0.1,0.1-0.15
		l0.05-0.05c0.05-0.1,0.15-0.2,0.2-0.31c0.05-0.05,0.1-0.1,0.1-0.15l0.05-0.1c0.51-0.71,0.97-1.43,1.53-2.25
		c0-0.05,0.05-0.1,0.1-0.1c0.05-0.15,0.15-0.26,0.26-0.36c0.05-0.15,0.15-0.31,0.15-0.51c0.05-0.1,0.05-0.15,0.05-0.2
		c0.1-0.41,0.05-0.77-0.15-1.07c-0.2-0.36-1.07-1.28-1.53-1.33c-0.05,0-0.05,0-0.1-0.05c-0.26-0.26-0.66-0.31-0.92-0.05
		c-0.05,0.1-0.1,0.15-0.15,0.26c-0.31,0.36-0.51,0.77-0.77,1.12c-0.05,0.1-0.05,0.26,0,0.36c-0.15,0-0.31,0.1-0.41,0.26
		c-0.09,0.18-0.2,0.37-0.32,0.55c-0.07,0.04-0.14,0.1-0.19,0.16c-0.05,0.05-0.1,0.1-0.15,0.15c-0.05,0.15-0.15,0.26-0.26,0.41
		c-0.15,0.2-0.36,0.46-0.51,0.71l-0.1,0.1c-0.36,0.56-0.77,1.12-1.23,1.68l-0.2,0.26c-0.36,0.56-0.77,1.07-1.17,1.58
		c-0.2,0.26-0.36,0.46-0.56,0.66c-1.02,1.43-2.2,2.81-3.42,4.08c-0.1,0.1-0.2,0.2-0.26,0.36c0,0.05-0.05,0.05-0.1,0.1
		c-0.05,0.05-0.15,0.1-0.2,0.15c-0.1,0.1-0.2,0.2-0.31,0.31c-0.26,0.26-0.56,0.51-0.82,0.77c-0.15,0.2-0.36,0.31-0.51,0.46
		c-0.2,0.2-0.46,0.41-0.66,0.66c-0.1,0.1-0.2,0.15-0.46,0.2v-0.05c0-0.05,0-0.1,0-0.15c0.05-0.15,0.1-0.26,0.15-0.41
		c0.05-0.36,0.15-0.71,0.26-1.12c0.15-0.46,0.2-0.92,0.2-1.33c0-0.15,0.05-0.26,0.1-0.36c0-0.1,0.05-0.2,0.05-0.31
		c0.05-0.26,0.1-0.56,0.1-0.87h0.05c0-0.15,0-0.31,0-0.51l0.05-0.2c0-0.15,0.05-0.31,0.05-0.46c0-0.05,0-0.15,0-0.2s0-0.1,0-0.2
		c0.05-0.15,0.05-0.36,0.05-0.51c0.05-0.31,0.1-0.61,0.1-0.92c0-0.1,0-0.15,0-0.2c0.05-0.2,0.05-0.41,0.1-0.61c0-0.15,0-0.31,0-0.46
		s0-0.2,0.05-0.26c0.05-0.1,0.05-0.26,0.1-0.36c0.1-0.36,0.2-0.71,0.31-1.07c0.05-0.05,0.05-0.1,0.05-0.15
		c0.1-0.31,0.2-0.56,0.36-0.87c0.05-0.15,0.15-0.31,0.26-0.46c0.05-0.05,0.1-0.15,0.2-0.26l0.05-0.15c0.31-0.36,0.61-0.77,0.97-1.12
		c0.1-0.1,0.2-0.2,0.26-0.31c0.05,0,0.1-0.05,0.15-0.1c0.1-0.15,0.1-0.31,0.1-0.41c0-0.15,0-0.26-0.05-0.41
		c-0.26-0.51-0.61-0.97-1.07-1.33c-0.15-0.05-0.26-0.15-0.31-0.26c-0.05-0.05-0.15-0.1-0.2-0.15c-0.15-0.05-0.2-0.1-0.31-0.15
		c-0.1-0.15-0.26-0.15-0.41-0.15c-0.36,0-0.71,0.26-0.97,0.56c-0.36,0.36-0.66,0.71-0.92,1.07c-0.1,0.1-0.2,0.2-0.26,0.36
		c-0.15,0.2-0.31,0.41-0.46,0.66c-0.05,0.1-0.1,0.2-0.2,0.31c-0.1,0.15-0.15,0.26-0.26,0.46c-0.15,0.32-0.28,0.63-0.41,0.94
		c-0.03,0.05-0.06,0.1-0.1,0.13c-0.41,0.46-0.71,0.92-1.02,1.38c-0.1,0.1-0.2,0.26-0.31,0.36c-0.05,0.1-0.1,0.2-0.2,0.26
		c-0.05,0.1-0.1,0.15-0.1,0.2c-0.15,0.2-0.31,0.41-0.46,0.66c-0.05,0.1-0.1,0.15-0.2,0.26c-0.31,0.36-0.61,0.77-0.92,1.17v0.05
		c-0.1,0.15-0.26,0.31-0.36,0.46c-0.1,0.1-0.2,0.26-0.31,0.41c-0.1,0.1-0.2,0.26-0.2,0.41c-0.05,0-0.05,0.05-0.1,0.05
		c-0.1,0.05-0.15,0.1-0.26,0.2c-0.1,0.15-0.2,0.26-0.31,0.41c-0.15,0.15-0.26,0.31-0.41,0.46c0,0.05-0.05,0.1-0.1,0.15
		c0,0.05-0.05,0.05-0.05,0.1l-0.1,0.1c-0.1,0.15-0.26,0.31-0.41,0.51c-0.15,0.1-0.26,0.31-0.36,0.51c-0.05,0-0.15,0-0.2,0.1
		c-0.2,0.2-0.36,0.41-0.51,0.56c-0.2,0.2-0.36,0.46-0.61,0.66c-0.05,0.05-0.1,0.1-0.15,0.15c-0.26,0.31-0.56,0.56-0.82,0.87
		c-0.15,0.15-0.31,0.26-0.51,0.46c-0.1,0.1-0.15,0.2-0.26,0.31c0,0.05-0.1,0.1-0.15,0.15c-0.05,0.05-0.15,0.1-0.2,0.2
		c-0.15,0.15-0.31,0.25-0.46,0.36c-0.15,0.15-0.31,0.31-0.51,0.46l-0.26,0.2c-0.26,0.15-0.46,0.36-0.71,0.51
		c-0.1,0.1-0.26,0.2-0.41,0.26c-0.15,0.1-0.36,0.2-0.51,0.31c-0.15,0.1-0.31,0.15-0.41,0.26c-0.41,0.2-0.82,0.36-1.28,0.41
		c-0.26,0-0.46-0.1-0.56-0.26c-0.1-0.1-0.2-0.2-0.31-0.26c0.1-0.1,0.15-0.26,0.15-0.41c0-0.1,0-0.15,0-0.26v-0.05
		c0.05-0.05,0.05-0.15,0.1-0.2c0.15-0.66,0.31-1.33,0.61-1.89c0.05-0.15,0.15-0.31,0.2-0.51l0.05-0.1c0.1-0.2,0.26-0.46,0.36-0.71
		c0.26-0.41,0.46-0.82,0.66-1.28c0.15-0.2,0.26-0.41,0.31-0.66l0.05-0.05c0.05-0.1,0.15-0.15,0.15-0.2
		c0.15-0.26,0.31-0.51,0.46-0.71c0.05-0.15,0.1-0.26,0.15-0.36c0.05-0.05,0.1-0.1,0.1-0.15l0.05-0.05c0.05-0.05,0.1-0.15,0.15-0.26
		c0.15-0.26,0.36-0.51,0.51-0.77c0.05-0.15,0.15-0.31,0.26-0.46c0.36-0.56,0.77-1.17,1.12-1.74c0.15-0.26,0.36-0.51,0.51-0.77
		c0.05-0.1,0.1-0.15,0.15-0.26c0.1-0.15,0.1-0.31,0.05-0.41c0.2,0,0.31-0.1,0.41-0.26c0.15-0.2,0.26-0.41,0.41-0.61
		c0.1-0.1,0.2-0.26,0.31-0.41c0-0.05,0.05-0.15,0.1-0.2s0.1-0.15,0.15-0.26c0.15-0.15,0.26-0.36,0.41-0.56
		c0.1-0.15,0.26-0.36,0.36-0.56c0.15-0.15,0.2-0.31,0.26-0.46c0.1-0.36,0.05-0.66-0.1-0.92c-0.05-0.05-0.1-0.1-0.1-0.15
		c-0.26-0.56-1.12-1.23-1.74-1.53c-0.1-0.1-0.2-0.1-0.31-0.15c-0.2-0.05-0.36,0-0.51,0.15c-0.15,0.1-0.26,0.31-0.36,0.46
		c-0.51,0.71-0.97,1.48-1.43,2.19c-0.31,0.46-0.61,0.92-0.92,1.33c-0.05,0.15-0.15,0.26-0.2,0.36c-0.05,0.05-0.1,0.05-0.2,0.1
		c-0.05-0.05-0.05-0.1-0.05-0.1c0-0.1,0-0.2-0.05-0.31v-0.05c0-0.1,0-0.2,0-0.31c-0.05-0.2-0.05-0.41-0.1-0.61
		c-0.2-1.48-2.14-3.37-3.68-3.37c-0.15,0-0.31,0-0.41,0c-0.26,0-0.51,0-0.71,0.15c-0.15,0.05-0.31,0.1-0.46,0.1
		c-0.1,0-0.2,0.05-0.31,0.1c-0.1,0.05-0.2,0.05-0.31,0.1c-0.05,0.05-0.15,0.05-0.2,0.1c-0.77,0.36-1.74,1.02-2.3,1.63
		c-0.1,0.15-0.26,0.26-0.46,0.36c-0.05,0.1-0.1,0.15-0.2,0.2c-0.15,0.15-0.31,0.31-0.46,0.51l-0.15,0.1
		c-0.41,0.46-0.82,0.92-1.17,1.43c-0.1,0.1-0.2,0.26-0.26,0.41c-0.05,0.05-0.1,0.1-0.15,0.15c-0.1,0.05-0.15,0.1-0.2,0.15l-0.1,0.2
		c-0.25,0.36-0.56,0.77-0.77,1.17c-0.05,0.05-0.1,0.1-0.1,0.15c-0.05,0-0.05,0.05-0.1,0.1l-0.1,0.15c-0.66,1.12-1.28,2.25-1.74,3.47
		c0,0.1-0.05,0.2,0,0.36c-0.36,0.36-0.71,1.99-0.82,2.6c-0.05,0.31-0.15,0.71-0.1,1.07c0,0.05,0,0.1-0.05,0.15
		c0,0.05,0,0.05-0.05,0.2v0.56c0,0.05,0,0.05,0,0.05c0.1,0.2,0.15,0.36,0.1,0.51c-0.05,0.1-0.05,0.26,0.05,0.41
		c0,0,0.05,0.05,0.05,0.1c0,0.1,0,0.26,0.05,0.36c0.56,1.68,1.89,3.37,3.78,3.37c1.33,0,2.96-1.02,3.83-2.04
		c0-0.05,0.05-0.1,0.1-0.15c0.05-0.05,0.1-0.05,0.15-0.1c0.05-0.05,0.15-0.15,0.2-0.2c0.15-0.15,0.31-0.26,0.46-0.41
		c0.15-0.2,0.36-0.36,0.51-0.51c0.05-0.05,0.1-0.1,0.15-0.05c0.1,0,0.1,0.15,0.15,0.26c0.2,1.63,1.48,2.71,3.01,3.01
		c0.1,0.05,0.26,0.05,0.36-0.05h0.05c0.2,0.15,0.31,0.15,0.66,0.2c0.15,0,0.26,0,0.36-0.05c0.05-0.05,0.1-0.05,0.2-0.05
		c0.15,0,0.31,0,0.46-0.05c0.05-0.05,0.1-0.05,0.15-0.05c0.56-0.2,1.02-0.46,1.53-0.77l0.1-0.1c0.1-0.05,0.2-0.1,0.41-0.26
		c0.05,0,0.1-0.05,0.1-0.05c0.1-0.05,0.2-0.1,0.26-0.15c2.6-1.94,5.16-4.54,7.1-7.2c0.26-0.26,0.51-0.56,0.71-0.87l0.05-0.1
		c0.1-0.1,0.2-0.2,0.31-0.36c0.1-0.15,0.2-0.31,0.36-0.46c0.15-0.2,0.31-0.41,0.41-0.66c0-0.1,0.1-0.15,0.2-0.2
		c0.05-0.05,0.15-0.1,0.15-0.2c0.1-0.1,0.2-0.2,0.26-0.31c0.04-0.04,0.09-0.1,0.13-0.16c-0.01,0.07-0.02,0.14-0.03,0.21
		c0,0.05,0,0.1,0,0.1c-0.05,0.2-0.1,0.36-0.1,0.51c0,0.05,0,0.05,0,0.1c-0.05,0.26-0.05,0.51-0.1,0.71
		c-0.05,0.51-0.1,1.07-0.15,1.58c0,0.15,0,0.31-0.05,0.46c0,0,0,0.05,0,0.1c0,0.05,0,0.15,0,0.2c-0.1,0.2-0.1,0.46-0.1,0.71
		c0,0.1,0,0.2-0.05,0.31c0,0.15-0.05,0.31-0.05,0.46c-0.05,0.31-0.1,0.56-0.1,0.87c-0.15,1.23-0.51,3.68-1.89,4.19
		c-0.1,0.05-0.2,0.05-0.31,0s-0.26-0.05-0.36-0.1c-0.15-0.05-0.31-0.1-0.46-0.15c-0.31-0.1-0.51-0.82-0.56-1.12
		c-0.05-0.31-0.1-0.61-0.1-0.87c0-0.1,0-0.2,0-0.26c-0.05-0.36-0.15-0.61-0.51-0.71c-0.36-0.05-0.66,0.1-0.87,0.41
		c0,0.05,0,0.1,0,0.15c-0.05,0.1-0.1,0.15-0.2,0.36v0.77c0.1,0.15,0.15,0.2,0.15,0.26c0.05,0.26,0.1,0.46,0.15,0.66
		c0.2,0.46,0.31,0.71,0.66,1.07c0.1,0.1,0.2,0.2,0.31,0.31c0.1,0.15,0.26,0.26,0.61,0.41c0.23,0.17,0.55,0.28,0.88,0.37
		c-0.03,0.05-0.04,0.1-0.04,0.19c-0.06,0.17-0.12,0.41-0.17,0.58c-0.06,0.06-0.06,0.12,0,0.23c-0.12,0.12-0.17,0.23-0.23,0.4
		c0,0.12-0.06,0.17-0.12,0.29c0,0,0,0.06,0,0.12l-0.06,0.06c0,0.06-0.06,0.12-0.17,0.35c-0.06,0.06-0.12,0.17-0.17,0.23
		c-0.06,0.12-0.12,0.23-0.17,0.29v0.06c-0.12,0.17-0.23,0.29-0.41,0.4c-0.06,0-0.12,0.06-0.35,0.17c-0.12,0.06-0.29,0.12-0.41,0.12
		l-0.17,0.06c-0.12,0.06-0.17,0.12-0.23,0.23c-0.06,0.12,0,0.23,0.06,0.29c0.12,0.23,0.35,0.29,0.52,0.35c0.06,0,0.06,0,0.17,0.06
		h0.52c0.06-0.06,0.12-0.06,0.12-0.06c0.12-0.06,0.17-0.06,0.52-0.17c0.06,0,0.12-0.06,0.17-0.06c0.17-0.06,0.29-0.12,0.35-0.23
		l0.06,0.06h0.06l0.12-0.12c0.17-0.06,0.29-0.12,0.46-0.29c0.29-0.06,1.04-0.87,1.22-1.1h0.06c0.06-0.06,0.06-0.12,0.12-0.23
		c0.12-0.06,0.12-0.12,0.12-0.23c0.12,0,0.17-0.12,0.23-0.17c0.12-0.17,0.23-0.35,0.29-0.52c0.06-0.06,0.06-0.17,0.12-0.23
		c0.06-0.12,0.06-0.17,0-0.23c0.12,0,0.12-0.12,0.12-0.17s0.06-0.12,0.06-0.17c0.04-0.15,0.06-0.32,0.07-0.5
		c0.58-0.13,1.15-0.32,1.67-0.61c0.05-0.05,0.1-0.05,0.15-0.1c0.31-0.1,0.61-0.26,0.87-0.46c0.36-0.26,0.72-0.51,1.07-0.77l0.26-0.2
		c0.15-0.1,0.26-0.2,0.36-0.31c0.1-0.1,0.2-0.26,0.36-0.31c0.1-0.05,0.15-0.1,0.26-0.2c0.05-0.1,0.15-0.2,0.26-0.26
		c0.1-0.1,0.26-0.2,0.36-0.36c0.2-0.1,0.31-0.26,0.41-0.46c0-0.05,0.05-0.1,0.05-0.1c0.26-0.05,0.41-0.2,0.56-0.41
		c0.15-0.15,0.31-0.31,0.46-0.46c0.14-0.16,0.65-0.71,1.17-1.28c-0.29,0.8-0.49,1.63-0.51,2.46c-0.05,0.15,0,0.31,0,0.51
		c0,0.15,0.05,0.26,0.05,0.41c0,0.15,0.05,0.31,0.2,0.36c-0.05,0.2-0.05,0.31,0.05,0.51c0.05,0.05,0.05,0.1,0.1,0.15
		c0.15,0.15,0.26,0.36,0.41,0.51c0.1,0.1,0.2,0.15,0.31,0.2c0.05,0,0.1,0,0.1,0.05c0.2,0.31,0.46,0.51,0.82,0.56
		c0.31,0.31,1.28,0.46,1.68,0.46c0.1,0,0.26,0,0.51,0c0.31,0,0.71-0.05,1.17-0.26c0.26-0.05,0.46-0.15,0.71-0.26
		c0.31-0.2,0.66-0.46,1.02-0.66l0.2-0.1c0.05-0.05,0.05-0.05,0.15-0.15c0.15-0.05,0.31-0.15,0.46-0.26
		c0.66-0.51,1.33-1.02,1.89-1.63h0.05c0.15-0.15,0.36-0.36,0.46-0.61c0.15,0,0.31-0.1,0.41-0.25c0.31-0.36,0.66-0.71,0.98-1.03
		c-0.32,0.78-0.54,1.54-0.58,2.41c-0.05,0.71,0.1,1.38,0.46,2.04c0.26,0.36,1.02,0.92,1.48,0.92c0.36,0,0.66-0.36,0.82-0.71
		c0,0,0.05-0.05,0.05-0.1c0.05-0.1,0.15-0.2,0.2-0.36c0.66-1.12,1.38-2.3,2.2-3.37c0.1-0.15,0.2-0.31,0.31-0.46
		c0.05-0.15,0.1-0.31,0.26-0.41c0.2-0.26,0.41-0.46,0.56-0.71c0.1-0.2,0.26-0.41,0.41-0.61c0.1-0.1,0.2-0.2,0.31-0.36
		c0.1-0.15,0.26-0.36,0.41-0.56c0.26-0.36,0.51-0.66,0.77-1.02c0.26-0.31,0.51-0.66,0.77-0.97l0.05-0.05
		c0.05-0.1,0.15-0.26,0.2-0.36c0.1-0.2,0.25-0.36,0.41-0.46c0.26-0.31,0.51-0.61,0.77-0.97c0.15-0.2,0.31-0.41,0.46-0.56
		c0.2-0.26,0.41-0.46,0.61-0.66c0.15-0.2,0.36-0.46,0.56-0.66c1.17-1.38,2.45-2.76,3.88-3.88c0.05-0.05,0.2-0.15,0.26-0.31
		c0.05-0.1,0.1-0.15,0.2-0.2c0.15,0,0.31-0.1,0.41-0.15l0.05-0.05c0.05-0.05,0.15-0.1,0.26-0.15c0.2-0.15,0.41-0.26,0.66-0.41
		c0.46-0.31,0.87-0.51,1.53-0.56c0.05,0,0.1,0.05,0.15,0.1c0,0,0,0.05,0,0.1c-0.05,0.15-0.1,0.2-0.2,0.31
		c-0.05,0.15-0.15,0.26-0.26,0.36c-0.2,0.26-0.46,0.56-0.66,0.82c-0.31,0.36-0.56,0.71-0.87,1.07c-0.1,0.15-0.26,0.36-0.41,0.51
		c-0.61,0.66-1.17,1.38-1.63,2.09v0.05c-0.05,0.05-0.05,0.1-0.1,0.15c-0.41,0.46-0.71,0.97-1.02,1.43
		c-0.15,0.26-0.31,0.46-0.41,0.66c-0.41,0.61-0.82,1.23-1.12,1.89c-0.26,0.31-0.46,0.66-0.61,0.97c-0.66,1.17-1.23,2.25-1.48,3.52
		c-0.1,0.46-0.2,0.92-0.2,1.38c0.05,0.71,0.46,2.25,1.28,2.5c0.05,0,0.1,0.05,0.15,0.1c0.1,0.05,0.2,0.15,0.31,0.2
		c0.1,0.05,0.26,0.15,0.31,0.2c0.41,0.41,1.58,0.51,2.14,0.51c0.1,0.05,0.2,0,0.26,0c1.94-0.36,3.62-1.68,5.05-2.96
		c0.15-0.15,0.31-0.26,0.46-0.41c0.2-0.2,0.36-0.41,0.41-0.66c0.31-0.1,0.46-0.26,0.66-0.41c0.54-0.56,1.07-1.13,1.59-1.71
		c-0.03,0.14-0.04,0.3-0.04,0.38c-0.05,0.1-0.05,0.15-0.05,0.2c0,0.05,0,0.15,0,0.2c0,0.1,0,0.2,0,0.26c0.05,0.15,0.05,0.31,0,0.46
		c-0.05,0.41,0,0.87,0.15,1.33c0.05,0.15,0.1,0.31,0.31,0.46c-0.05,0.2,0,0.36,0.1,0.56c0.05,0,0.05,0.05,0.2,0.25
		c0.05,0.15,0.15,0.31,0.2,0.41c0.15,0.2,0.26,0.41,0.46,0.56c0.1,0.05,0.15,0.1,0.2,0.15c0.1,0.15,0.26,0.25,0.46,0.31
		c0.31,0.51,1.38,0.71,1.94,0.71c0.31,0,0.71-0.05,1.07-0.2c0.05-0.05,0.1-0.05,0.2-0.1c0,0,0.05,0,0.15-0.05
		c0.56-0.15,1.33-0.77,1.74-1.12c0.1-0.1,0.2-0.15,0.31-0.26c0.1-0.1,0.26-0.2,0.36-0.31c0.1-0.1,0.26-0.2,0.36-0.36
		c0.05-0.05,0.1-0.15,0.2-0.2c0.2-0.15,0.36-0.36,0.56-0.56c0.05-0.05,0.1-0.1,0.15-0.15l0.05-0.05c0-0.05,0.05-0.05,0.26-0.1
		c0,0.05,0.05,0.1,0.05,0.26c0.05,0.1,0.1,0.26,0.15,0.46c-0.05,0.2,0.05,0.41,0.1,0.56c0.1,0.1,0.15,0.26,0.26,0.36
		c0,0.05,0.05,0.1,0.05,0.15c0.1,0.1,0.2,0.2,0.31,0.26c0.1,0.05,0.15,0.1,0.15,0.2c0.1,0.15,0.26,0.2,0.36,0.31
		c0.05,0,0.1,0.05,0.2,0.1c0.71,0.41,1.17,0.61,2.04,0.71c0.26,0.05,0.56,0.1,0.87-0.05c0.05,0,0.1,0,0.15,0
		c0.36,0,0.66-0.1,1.02-0.31c0.05-0.05,0.05-0.05,0.1-0.05s0.1-0.05,0.1-0.05c0.41-0.1,0.71-0.31,1.02-0.51
		c0.71-0.46,2.96-2.04,3.37-2.71c0.05-0.1,0.15-0.15,0.26-0.2c0.2-0.26,0.46-0.46,0.66-0.71c0.15-0.1,0.26-0.26,0.36-0.36h0.05
		c0.1-0.15,0.26-0.31,0.41-0.51c0.26-0.2,0.46-0.46,0.66-0.71c0.1-0.1,0.2-0.26,0.31-0.36c0-0.05,0.05-0.1,0.15-0.2
		c0.1-0.05,0.2-0.2,0.31-0.31c0.05-0.1,0.1-0.15,0.15-0.2c0.02-0.02,0.05-0.05,0.07-0.08c-0.06,0.25-0.1,0.48-0.13,0.64
		c-0.05,0.31-0.15,0.71-0.1,1.07c0,0.05,0,0.1-0.05,0.15c0,0.05,0,0.05-0.05,0.2v0.56c0,0.05,0,0.05,0,0.05
		c0.1,0.2,0.15,0.36,0.1,0.51c-0.05,0.1-0.05,0.26,0.05,0.41c0,0,0.05,0.05,0.05,0.1c0,0.1,0,0.26,0.05,0.36
		c0.56,1.68,1.89,3.37,3.78,3.37c1.33,0,2.96-1.02,3.83-2.04c0-0.05,0.05-0.1,0.1-0.15c0.05-0.05,0.1-0.05,0.15-0.1
		c0.05-0.05,0.15-0.15,0.2-0.2c0.15-0.15,0.31-0.26,0.46-0.41c0.15-0.2,0.36-0.36,0.51-0.51c0.05-0.05,0.1-0.1,0.15-0.05
		c0.1,0,0.1,0.15,0.15,0.26c0.2,1.63,1.48,2.71,3.01,3.01c0.1,0.05,0.26,0.05,0.36-0.05h0.05c0.2,0.15,0.31,0.15,0.66,0.2
		c0.15,0,0.26,0,0.36-0.05c0.05-0.05,0.1-0.05,0.2-0.05c0.15,0,0.31,0,0.46-0.05c0.05-0.05,0.1-0.05,0.15-0.05
		c0.56-0.2,1.02-0.46,1.53-0.77l0.1-0.1c0.1-0.05,0.2-0.1,0.41-0.26c0.05,0,0.1-0.05,0.1-0.05c0.1-0.05,0.2-0.1,0.26-0.15
		c2.6-1.94,5.16-4.54,7.1-7.2c0.26-0.26,0.51-0.56,0.71-0.87l0.05-0.1c0.1-0.1,0.2-0.2,0.31-0.36c0.1-0.15,0.2-0.31,0.36-0.46
		c0.15-0.2,0.31-0.41,0.41-0.66c0-0.1,0.1-0.15,0.2-0.2c0.05-0.05,0.15-0.1,0.15-0.2c0.1-0.1,0.2-0.2,0.26-0.31
		c0.1-0.1,0.2-0.25,0.31-0.41c0.26-0.31,0.51-0.66,0.71-0.97l0.15-0.15c0.26-0.41,0.56-0.87,0.82-1.23c0.2-0.26,0.36-0.51,0.46-0.77
		C1201.82,111.18,1201.82,110.98,1201.62,110.88z M1093.08,117.21c-0.1,0.2-0.2,0.41-0.36,0.61c-0.41,0.71-0.82,1.43-1.33,2.09
		c-0.05,0.1-0.1,0.15-0.2,0.26c-0.1,0.15-0.2,0.26-0.31,0.41c-0.05,0.15-0.2,0.31-0.31,0.41c-0.15,0.2-0.31,0.41-0.46,0.61
		c-0.1,0.1-0.15,0.15-0.26,0.26c-0.05,0.1-0.15,0.26-0.2,0.36c-0.05,0.1-0.1,0.15-0.15,0.15c-0.2,0.1-0.36,0.26-0.46,0.46
		c-0.05,0.1-0.1,0.15-0.15,0.2c-0.1,0.05-0.2,0.1-0.31,0.2c-0.77,0.87-1.79,1.74-2.96,2.09c-0.31,0.1-0.56,0-0.82-0.2
		c-0.1-0.05-0.15-0.2-0.2-0.31c-0.1-0.1-0.15-0.26-0.2-0.41c0-0.05-0.05-0.1-0.05-0.2l-0.05-0.05c0-0.05,0-0.1,0-0.2
		c0-0.1-0.05-0.2-0.05-0.31c-0.05-0.15-0.05-0.26,0-0.41c0.05-0.15,0.05-0.36,0.05-0.51v-0.05c0.05-0.1,0-0.26,0-0.36
		c-0.05,0-0.05-0.05,0-0.1c0.15-0.1,0.15-0.31,0.2-0.51c0.05-0.2,0.1-0.41,0.15-0.66c0.1-0.15,0.15-0.36,0.2-0.51
		c0.1-0.36,0.26-0.71,0.36-1.07c0.05-0.15,0.1-0.31,0.15-0.41c0.05-0.05,0.05-0.1,0.1-0.15c0-0.1,0.05-0.2,0.1-0.36
		c0,0,0-0.05,0.05-0.1c0-0.05,0.05-0.05,0.05-0.1c0.05-0.05,0.1-0.1,0.1-0.2c0.51-1.07,1.07-2.04,1.68-3.01
		c0.1-0.15,0.2-0.31,0.31-0.56c0.15-0.1,0.2-0.26,0.31-0.41c0.05-0.05,0.1-0.15,0.15-0.26l0.1-0.1c0.25-0.31,0.46-0.61,0.71-1.02
		c0.2-0.15,0.31-0.36,0.46-0.56c0.61-0.77,1.28-1.48,2.04-2.14l0.1-0.15c0.05-0.05,0.1-0.1,0.15-0.15c0.1-0.05,0.2-0.1,0.26-0.2
		c0.1-0.1,0.2-0.2,0.36-0.26c0.05-0.05,0.15-0.1,0.26-0.15c0.1-0.15,0.31-0.2,0.51-0.26c0.05,0,0.1-0.05,0.15-0.05
		c0.1-0.05,0.2-0.05,0.31-0.05c0.92,0,1.23,0.56,1.63,1.28c-0.05,0.15-0.05,0.31,0,0.46c0.05,0.2,0.05,0.41,0,0.66
		c-0.05,0.15-0.05,0.26-0.05,0.41s0,0.26-0.05,0.41c-0.05,0.1-0.05,0.26-0.1,0.36c-0.1,0.56-0.26,1.07-0.41,1.53
		c0,0.1-0.05,0.15-0.05,0.26c-0.05,0.05-0.05,0.1-0.05,0.15c-0.05,0.05-0.05,0.1-0.05,0.15c-0.05,0.15-0.15,0.31-0.2,0.46
		C1093.95,115.73,1093.54,116.49,1093.08,117.21z M1161.96,116.24c-0.15,0.31-0.36,0.61-0.51,0.92c-0.05,0.2-0.15,0.36-0.26,0.46
		c-0.1,0.15-0.15,0.31-0.26,0.46c-0.15,0.26-0.36,0.51-0.51,0.92c-0.05,0.1-0.1,0.15-0.15,0.26c-0.15,0.2-0.31,0.41-0.46,0.61
		c-0.05,0.05-0.1,0.1-0.1,0.2c-0.05,0.05-0.05,0.05-0.05,0.1c-0.2,0.1-0.36,0.31-0.46,0.46c-0.15,0.2-0.26,0.36-0.41,0.51
		c-0.41,0.51-0.71,0.92-1.07,1.33c-0.26,0.31-0.51,0.56-0.82,0.87c-0.1,0.1-0.2,0.15-0.26,0.26c-0.66,0.61-1.79,1.53-2.65,1.74
		c-0.36,0.1-0.66,0-0.92-0.26c-0.36-0.46-0.41-0.82-0.41-1.33c0-0.36,0-0.71,0.05-1.02c0-0.2,0-0.36,0.05-0.56
		c0.31-1.63,1.07-3.83,1.99-5.26c0.1-0.15,0.2-0.31,0.26-0.51c0.05-0.05,0.1-0.1,0.15-0.15c0.05-0.15,0.1-0.26,0.2-0.36
		c0.2-0.31,0.36-0.61,0.56-0.97c0.15-0.2,0.31-0.41,0.46-0.66c0.2-0.36,0.41-0.61,0.61-0.92c0.05-0.05,0.1-0.1,0.1-0.15
		c0.77-1.12,3.47-4.39,4.95-4.39c0.72,0,1.53,0.77,1.58,1.48c0,0.46,0,0.92-0.05,1.38c0,0.1-0.05,0.2-0.05,0.31
		c-0.1,0.46-0.2,0.97-0.36,1.43c0,0.1-0.05,0.2-0.05,0.26l-0.05,0.15c-0.05,0.05-0.05,0.15-0.1,0.26c-0.05,0.05-0.05,0.15-0.05,0.26
		c-0.05,0.1-0.05,0.2-0.1,0.26c-0.05,0.15-0.1,0.26-0.15,0.41c-0.2,0.41-0.41,0.82-0.66,1.23L1161.96,116.24z M1184.32,117.21
		c-0.1,0.2-0.2,0.41-0.36,0.61c-0.41,0.71-0.82,1.43-1.33,2.09c-0.05,0.1-0.1,0.15-0.2,0.26c-0.1,0.15-0.2,0.26-0.31,0.41
		c-0.05,0.15-0.2,0.31-0.31,0.41c-0.15,0.2-0.31,0.41-0.46,0.61c-0.1,0.1-0.15,0.15-0.26,0.26c-0.05,0.1-0.15,0.26-0.2,0.36
		c-0.05,0.1-0.1,0.15-0.15,0.15c-0.2,0.1-0.36,0.26-0.46,0.46c-0.05,0.1-0.1,0.15-0.15,0.2c-0.1,0.05-0.2,0.1-0.31,0.2
		c-0.77,0.87-1.79,1.74-2.96,2.09c-0.31,0.1-0.56,0-0.82-0.2c-0.1-0.05-0.15-0.2-0.2-0.31c-0.1-0.1-0.15-0.26-0.2-0.41
		c0-0.05-0.05-0.1-0.05-0.2l-0.05-0.05c0-0.05,0-0.1,0-0.2c0-0.1-0.05-0.2-0.05-0.31c-0.05-0.15-0.05-0.26,0-0.41
		c0.05-0.15,0.05-0.36,0.05-0.51v-0.05c0.05-0.1,0-0.26,0-0.36c-0.05,0-0.05-0.05,0-0.1c0.15-0.1,0.15-0.31,0.2-0.51
		c0.05-0.2,0.1-0.41,0.15-0.66c0.1-0.15,0.15-0.36,0.2-0.51c0.1-0.36,0.26-0.71,0.36-1.07c0.05-0.15,0.1-0.31,0.15-0.41
		c0.05-0.05,0.05-0.1,0.1-0.15c0-0.1,0.05-0.2,0.1-0.36c0,0,0-0.05,0.05-0.1c0-0.05,0.05-0.05,0.05-0.1c0.05-0.05,0.1-0.1,0.1-0.2
		c0.51-1.07,1.07-2.04,1.68-3.01c0.1-0.15,0.2-0.31,0.31-0.56c0.15-0.1,0.2-0.26,0.31-0.41c0.05-0.05,0.1-0.15,0.15-0.26l0.1-0.1
		c0.25-0.31,0.46-0.61,0.71-1.02c0.2-0.15,0.31-0.36,0.46-0.56c0.61-0.77,1.28-1.48,2.04-2.14l0.1-0.15c0.05-0.05,0.1-0.1,0.15-0.15
		c0.1-0.05,0.2-0.1,0.26-0.2c0.1-0.1,0.2-0.2,0.36-0.26c0.05-0.05,0.15-0.1,0.26-0.15c0.1-0.15,0.31-0.2,0.51-0.26
		c0.05,0,0.1-0.05,0.15-0.05c0.1-0.05,0.2-0.05,0.31-0.05c0.92,0,1.23,0.56,1.63,1.28c-0.05,0.15-0.05,0.31,0,0.46
		c0.05,0.2,0.05,0.41,0,0.66c-0.05,0.15-0.05,0.26-0.05,0.41s0,0.26-0.05,0.41c-0.05,0.1-0.05,0.26-0.1,0.36
		c-0.1,0.56-0.26,1.07-0.41,1.53c0,0.1-0.05,0.15-0.05,0.26c-0.05,0.05-0.05,0.1-0.05,0.15c-0.05,0.05-0.05,0.1-0.05,0.15
		c-0.05,0.15-0.15,0.31-0.2,0.46C1185.18,115.73,1184.78,116.49,1184.32,117.21z"/>
</g>
</svg>
